<?xml version="1.0" standalone="no"?>
<!DOCTYPE svg PUBLIC "-//W3C//DTD SVG 20010904//EN"
 "http://www.w3.org/TR/2001/REC-SVG-20010904/DTD/svg10.dtd">
<svg version="1.0" xmlns="http://www.w3.org/2000/svg"
 width="100.000000pt" height="100.000000pt" viewBox="0 0 100.000000 100.000000"
 preserveAspectRatio="xMidYMid meet">
<metadata>
Created by potrace 1.14, written by Peter Selinger 2001-2017
</metadata>
<g transform="translate(0.000000,100.000000) scale(0.100000,-0.100000)"
fill="#000000" stroke="none">
<path d="M0 500 l0 -500 500 0 500 0 0 90 0 90 -60 0 -60 0 0 188 c-1 199 -10
219 -29 62 -6 -52 -16 -130 -22 -172 l-11 -78 -53 0 -52 0 -23 167 c-13 93
-27 177 -31 188 -4 11 -8 -64 -8 -167 l-1 -188 -70 0 -70 0 0 320 0 321 107
-3 108 -3 6 -45 c37 -260 36 -260 59 -62 l13 112 98 0 99 0 0 90 0 90 -500 0
-500 0 0 -500z m370 311 c44 -22 70 -72 70 -133 l0 -48 -74 0 -75 0 -7 45 c-7
51 -18 63 -39 45 -15 -13 -20 -56 -9 -85 4 -9 34 -34 68 -57 127 -85 147 -115
148 -227 0 -97 -14 -128 -72 -160 -87 -48 -223 -27 -274 42 -15 21 -22 48 -24
103 l-4 74 76 0 76 0 0 -53 c0 -60 17 -92 43 -81 17 6 22 26 18 79 -3 38 -18
55 -112 120 -89 63 -104 90 -104 190 0 98 33 145 118 166 45 11 135 1 177 -20z"/>
</g>
</svg>
